<svg xmlns="http://www.w3.org/2000/svg" xml:space="preserve" viewBox="0 0 24 24" id="cloud">
  <g id="Duotone">
    <path d="M21 6.5h-3l-2.5-5h-5L8 4.5H4L.5 10 4 14.5h16l2.5-3.5z" style="fill:#fff"></path>
    <path d="M22.5 11h-3L18 12H6l-2-2H.5L4 14.5h16z" style="fill:#cce7ff"></path>
    <path d="M11.5 23.5v-12M15.5 19.5l-4 4-4-4" style="fill:none;stroke:#1078ff;stroke-linecap:round;stroke-linejoin:round;stroke-miterlimit:10"></path>
    <g>
      <path d="M14.5 14.5H20l2.5-3.5L21 6.5h-3l-2.5-5h-5L8 4.5H4L.5 10 4 14.5h4.5M14.5 6.5H18" style="fill:none;stroke:#1078ff;stroke-linecap:round;stroke-linejoin:round;stroke-miterlimit:10"></path>
    </g>
  </g>
  <path id="Frames-24px" d="M0 0h24v24H0z" style="fill:none"></path>
</svg>
