<svg xmlns="http://www.w3.org/2000/svg" viewBox="0 0 50 50" id="database">
  <path fill="#798ffe" d="M42.047 35.13v6.987c-.007 1.759-1.657 3.515-4.954 4.857-6.635 2.701-17.43 2.701-24.108 0-3.36-1.36-5.04-3.144-5.032-4.925v-6.987c-.007 1.781 1.671 3.566 5.032 4.925 6.679 2.701 17.473 2.701 24.108 0 3.297-1.342 4.947-3.098 4.954-4.857z"></path>
  <ellipse cx="25" cy="35.096" fill="#8ca1fd" rx="6.917" ry="17.047" transform="rotate(-89.909 25 35.096)"></ellipse>
  <path fill="#b7c5fd" d="M41.623 33.608c.41 1.918-1.176 3.89-4.78 5.357-6.498 2.645-17.069 2.646-23.61 0-3.646-1.475-5.264-3.46-4.862-5.387-1.216 2.235.313 4.67 4.614 6.41 6.679 2.7 17.473 2.7 24.108 0 4.254-1.732 5.751-4.153 4.53-6.38z"></path>
  <path fill="#3955d1" d="M40.713 25.834v6.44c-.007 1.62-1.528 3.24-4.566 4.477-6.116 2.49-16.066 2.49-22.221 0-3.098-1.253-4.646-2.898-4.639-4.54v-6.44c-.007 1.642 1.54 3.287 4.639 4.54 6.155 2.49 16.105 2.49 22.22 0 3.04-1.237 4.56-2.856 4.567-4.477z"></path>
  <path fill="#798ffe" d="M42.047 21.54v6.988c-.007 1.759-1.657 3.515-4.954 4.857-6.635 2.701-17.43 2.701-24.108 0-3.36-1.36-5.04-3.144-5.032-4.925v-6.987c-.007 1.781 1.671 3.566 5.032 4.925 6.679 2.701 17.473 2.701 24.108 0 3.297-1.342 4.947-3.098 4.954-4.857z"></path>
  <ellipse cx="25" cy="21.507" fill="#8ca1fd" rx="6.917" ry="17.047" transform="rotate(-89.909 25 21.507)"></ellipse>
  <path fill="#b7c5fd" d="M41.623 20.02c.41 1.917-1.176 3.889-4.78 5.356-6.498 2.645-17.069 2.646-23.61 0-3.646-1.475-5.264-3.46-4.862-5.387-1.216 2.235.313 4.67 4.614 6.41 6.679 2.7 17.473 2.7 24.108 0 4.254-1.733 5.751-4.153 4.53-6.38z"></path>
  <path fill="#3955d1" d="M40.713 12.245v6.44c-.007 1.62-1.528 3.24-4.566 4.477-6.116 2.49-16.066 2.49-22.221 0-3.098-1.253-4.646-2.898-4.639-4.54v-6.44c-.007 1.642 1.54 3.287 4.639 4.54 6.155 2.49 16.105 2.49 22.22 0 3.04-1.237 4.56-2.856 4.567-4.477z"></path>
  <path fill="#798ffe" d="M42.047 7.952v6.987c-.007 1.758-1.657 3.515-4.954 4.857-6.635 2.701-17.43 2.701-24.108 0-3.36-1.36-5.04-3.144-5.032-4.925V7.884c-.007 1.781 1.671 3.566 5.032 4.925 6.679 2.701 17.473 2.701 24.108 0 3.297-1.342 4.947-3.098 4.954-4.857z"></path>
  <ellipse cx="25" cy="7.918" fill="#8ca1fd" rx="6.917" ry="17.047" transform="rotate(-89.909 25 7.918)"></ellipse>
  <path fill="#b7c5fd" d="M41.623 6.43c.41 1.918-1.176 3.89-4.78 5.357-6.498 2.645-17.069 2.646-23.61 0C9.588 10.312 7.97 8.327 8.372 6.4c-1.216 2.235.313 4.67 4.614 6.409 6.679 2.702 17.473 2.701 24.108 0 4.254-1.732 5.751-4.152 4.53-6.379z"></path>
</svg>
