<?xml version="1.0" standalone="no"?>
<!DOCTYPE svg PUBLIC "-//W3C//DTD SVG 20010904//EN"
 "http://www.w3.org/TR/2001/REC-SVG-20010904/DTD/svg10.dtd">
<svg version="1.0" xmlns="http://www.w3.org/2000/svg"
 width="2048.000000pt" height="1247.000000pt" viewBox="0 0 2048.000000 1247.000000"
 preserveAspectRatio="xMidYMid meet">

<g transform="translate(0.000000,1247.000000) scale(0.100000,-0.100000)"
fill="#000000" stroke="none">
<path d="M10347 11933 c-59 -13 -116 -39 -178 -80 l-37 -24 -68 20 c-121 35
-209 44 -359 37 -238 -12 -411 -44 -589 -112 -50 -18 -97 -34 -103 -34 -7 0
-34 13 -61 29 -26 17 -90 42 -141 57 -85 24 -105 26 -205 21 -145 -7 -264 -39
-408 -110 -246 -122 -376 -280 -432 -530 -4 -15 -7 -68 -7 -118 l-1 -90 -56
-65 c-169 -195 -282 -437 -313 -671 -13 -100 -6 -267 15 -355 9 -42 10 -58 2
-59 -6 0 -31 0 -56 1 -65 2 -179 -24 -241 -55 -58 -30 -109 -65 -109 -76 0 -3
26 -33 59 -66 113 -115 235 -159 416 -150 l110 5 34 -51 c32 -49 33 -51 17
-76 -9 -14 -37 -65 -61 -113 -168 -328 -212 -608 -140 -883 57 -217 158 -390
325 -556 l107 -106 -28 -39 c-16 -21 -42 -81 -59 -132 -87 -267 -36 -550 151
-837 63 -97 239 -275 329 -334 102 -66 219 -119 326 -148 89 -24 117 -27 269
-27 189 0 332 18 483 60 51 15 95 24 97 22 8 -8 -44 -273 -77 -398 -70 -265
-180 -501 -276 -593 l-29 -27 -216 11 c-311 17 -643 -4 -942 -60 -169 -32
-211 -47 -225 -82 -16 -37 1 -76 36 -85 12 -3 73 6 135 20 156 34 293 53 494
67 203 14 591 7 785 -15 157 -18 478 -75 624 -112 177 -44 472 -138 491 -155
5 -5 -510 -9 -1260 -9 -699 0 -1275 -4 -1281 -8 -15 -10 -34 -47 -34 -66 0 -9
9 -25 20 -36 20 -20 33 -20 1365 -20 l1346 0 6 -31 c16 -81 129 -138 246 -124
110 12 180 58 194 126 l6 29 1281 0 c1103 1 1284 3 1300 15 27 21 25 73 -3 97
-22 17 -72 18 -1229 18 -795 0 -1203 3 -1196 10 15 15 289 103 464 148 338 89
621 129 980 138 334 9 614 -16 850 -76 96 -24 102 -25 130 -2 28 22 29 67 4
92 -43 42 -369 101 -664 121 -234 15 -571 -1 -801 -37 -41 -7 -42 -6 -115 69
-194 202 -304 532 -330 994 l-7 122 79 -24 c361 -114 810 -185 985 -156 197
32 262 115 260 327 0 70 -7 111 -26 169 -35 110 -34 119 25 161 76 54 100 115
79 198 -9 38 -9 51 5 80 24 51 20 115 -15 218 -19 57 -31 117 -32 153 l-2 60
59 12 c94 18 143 41 181 85 44 53 58 96 53 168 -4 61 -6 64 -141 321 -81 153
-189 394 -254 566 l-48 128 0 210 c0 116 2 307 4 425 4 201 3 219 -18 285 -27
82 -57 139 -117 216 l-43 55 35 86 c67 168 68 327 3 468 -40 86 -122 169 -189
189 -33 10 -60 30 -108 82 -173 187 -519 347 -971 449 -207 46 -283 53 -511
48 l-205 -5 -32 66 c-18 36 -54 91 -82 122 l-49 55 17 55 c23 70 34 160 26
210 -6 37 -9 39 -39 37 -18 -1 -58 -8 -89 -15z m-37 -226 c-41 -109 -145 -233
-252 -300 -37 -23 -38 -22 -26 21 33 121 160 292 253 340 50 25 54 16 25 -61z
m-358 33 c80 -16 81 -17 37 -89 -70 -115 -122 -281 -142 -449 -5 -43 -5 -44
21 -37 58 14 231 106 308 163 45 33 104 87 130 120 27 34 54 61 60 61 19 1 94
-108 94 -137 0 -4 -28 -14 -62 -21 -94 -19 -298 -95 -428 -159 -156 -77 -294
-162 -439 -270 -67 -50 -121 -89 -121 -87 0 1 18 38 39 82 74 150 95 280 67
413 -17 78 -72 200 -91 200 -30 0 -114 -76 -165 -150 -47 -70 -69 -132 -82
-240 -9 -72 -7 -103 9 -200 11 -63 32 -146 48 -183 l27 -68 -65 -67 c-81 -83
-169 -189 -249 -299 -33 -45 -64 -83 -69 -83 -5 0 -9 12 -9 28 0 73 -41 221
-86 311 -78 158 -206 269 -353 307 -35 8 -66 13 -69 9 -13 -13 -14 -179 -2
-235 32 -148 172 -307 355 -405 39 -20 72 -38 73 -40 2 -2 -29 -13 -70 -25
-117 -34 -256 -87 -358 -138 l-95 -48 -49 85 -48 85 7 101 c21 306 98 545 249
772 236 354 568 583 968 668 182 39 441 50 560 25z m-1147 -51 c36 -11 65 -23
64 -27 0 -4 -39 -33 -87 -64 -114 -74 -239 -185 -330 -291 l-73 -85 -102 0
c-122 0 -201 -18 -301 -70 -39 -20 -75 -39 -80 -41 -16 -7 4 101 31 169 69
174 190 285 408 372 79 32 114 41 235 62 47 8 171 -5 235 -25z m588 -422 c3
-24 2 -70 -3 -102 -10 -75 -52 -191 -65 -185 -6 3 -10 49 -10 110 1 92 4 112
27 163 15 31 31 57 36 57 5 0 12 -19 15 -43z m1802 -20 c236 -45 482 -122 661
-206 107 -51 254 -142 287 -179 18 -19 17 -20 -60 -26 -400 -34 -772 -135
-1083 -292 -244 -123 -391 -235 -636 -485 -261 -265 -369 -410 -429 -574 -6
-16 -9 -11 -19 27 -27 102 -96 153 -196 146 -100 -7 -190 -92 -225 -212 -23
-75 -20 -190 6 -243 56 -115 207 -173 326 -125 106 43 175 136 222 302 39 135
80 210 185 341 105 131 378 406 490 493 274 214 649 373 1056 446 167 30 351
50 459 50 136 0 183 -32 232 -159 64 -169 -31 -453 -192 -577 -129 -99 -285
-145 -614 -179 -182 -19 -268 -36 -371 -76 -249 -96 -369 -225 -400 -433 -10
-66 -11 -107 -4 -151 35 -213 -28 -372 -225 -571 -69 -70 -95 -89 -185 -132
-203 -98 -377 -133 -680 -138 -233 -3 -285 -11 -378 -55 -60 -29 -77 -32 -177
-35 -228 -6 -420 -93 -578 -264 -66 -72 -130 -163 -177 -253 l-25 -48 -45 6
c-117 18 -345 111 -464 190 -146 97 -306 316 -371 510 -43 128 -57 322 -35
462 23 141 119 374 221 534 55 88 188 254 196 246 2 -3 -3 -29 -11 -58 -22
-72 -20 -187 4 -289 22 -92 102 -263 149 -320 l30 -35 45 95 c73 156 88 211
94 340 3 87 0 131 -13 179 -19 75 -76 186 -112 220 l-26 25 32 25 c46 37 244
161 256 161 6 0 22 -24 38 -53 15 -29 48 -74 74 -100 l47 -48 -63 -127 c-96
-190 -127 -291 -141 -454 -25 -293 75 -582 267 -771 141 -139 274 -185 409
-141 48 16 154 87 154 103 0 4 9 18 20 31 76 87 66 320 -18 443 -84 121 -245
137 -348 34 -67 -68 -81 -149 -39 -233 30 -61 53 -83 122 -119 61 -31 89 -30
116 7 29 40 15 75 -43 105 -63 33 -83 56 -83 94 0 62 86 102 138 65 55 -38 93
-198 66 -279 -24 -72 -116 -137 -192 -137 -35 0 -117 42 -171 86 -70 58 -136
148 -183 249 -64 134 -80 213 -80 380 1 120 5 154 28 239 23 84 130 321 157
350 4 4 34 -2 67 -14 44 -17 87 -23 183 -27 111 -5 263 7 277 21 9 9 -82 119
-159 192 -41 39 -100 85 -131 103 -31 18 -57 34 -57 36 0 9 100 158 183 273
l89 123 51 -44 c108 -92 203 -122 362 -115 95 5 123 10 210 43 92 34 245 112
245 126 0 9 -140 86 -206 113 -155 63 -333 72 -473 23 -41 -15 -76 -25 -78
-23 -2 1 54 59 124 127 107 104 295 256 378 306 11 7 50 30 87 53 275 166 564
268 868 304 99 12 359 -3 485 -27z m-2925 -189 c-32 -49 -114 -224 -139 -297
-34 -99 -69 -256 -80 -355 -6 -49 -12 -91 -15 -93 -2 -2 -32 14 -65 36 -101
65 -226 97 -334 85 l-57 -7 6 -36 c13 -73 52 -168 90 -220 66 -89 186 -170
309 -207 33 -10 66 -22 73 -27 14 -11 17 -77 3 -77 -5 0 -57 -45 -115 -101
l-106 -101 -69 46 c-38 26 -99 60 -134 76 l-65 29 -20 68 c-29 96 -45 233 -38
317 24 253 161 532 348 711 121 117 258 183 381 184 l49 1 -22 -32z m303 -408
c55 -57 138 -202 124 -216 -19 -20 -145 113 -182 191 -48 103 -27 112 58 25z
m1089 -261 c26 -6 48 -14 48 -19 0 -15 -112 -35 -195 -35 -78 1 -155 18 -155
35 0 9 48 25 100 34 33 6 141 -2 202 -15z m-1794 -136 c53 -25 182 -136 182
-155 0 -15 -46 -2 -118 33 -60 29 -172 128 -172 151 0 14 44 2 108 -29z m892
-201 c0 -5 -6 -16 -13 -26 -12 -16 -20 -18 -63 -9 l-49 9 50 16 c59 19 75 21
75 10z m3742 -137 c18 -25 43 -71 57 -103 l26 -57 -3 -406 c-3 -277 0 -425 8
-469 27 -148 214 -581 379 -875 71 -127 76 -161 33 -205 -23 -22 -44 -30 -105
-40 -142 -23 -173 -64 -164 -215 4 -64 14 -116 36 -179 17 -50 31 -98 31 -108
0 -12 -19 -31 -50 -50 -27 -17 -50 -34 -50 -38 0 -3 14 -19 31 -36 17 -16 37
-41 45 -56 14 -26 13 -29 -13 -50 -75 -61 -110 -106 -117 -147 -7 -47 -4 -66
31 -175 21 -66 25 -92 21 -162 -7 -137 -41 -162 -219 -163 -269 -2 -534 51
-1044 210 -229 72 -276 90 -512 200 -117 55 -226 102 -243 105 -56 12 -101
-55 -67 -98 13 -17 315 -163 460 -223 48 -19 133 -51 190 -70 l102 -34 7 -73
c4 -40 11 -131 17 -203 22 -272 76 -498 166 -692 48 -102 96 -179 155 -246
l40 -45 -48 -11 c-26 -6 -81 -17 -122 -26 -80 -16 -102 -21 -245 -61 -209 -59
-435 -138 -628 -219 l-88 -37 -156 62 c-373 148 -865 283 -1148 315 -103 11
-101 7 -45 89 74 110 137 256 193 446 47 156 100 403 112 521 l7 67 69 47
c190 130 313 344 403 704 77 306 63 561 -40 737 -73 124 -230 246 -386 299
-14 5 65 11 192 15 296 10 474 43 663 125 125 53 186 94 277 185 93 93 162
183 209 276 26 53 36 84 55 175 6 26 7 26 88 26 243 -1 383 136 323 315 -26
74 -103 138 -167 138 -79 0 -178 -72 -178 -128 0 -44 22 -66 65 -66 29 0 42 6
57 27 30 41 71 37 93 -10 13 -26 15 -44 9 -62 -22 -63 -209 -107 -264 -63 -23
19 -25 26 -25 114 1 81 5 101 30 156 47 104 139 173 311 235 89 32 142 41 374
67 346 39 533 105 663 237 29 28 55 52 60 52 4 1 22 -19 39 -44z m-3773 -46
c71 -16 211 -95 211 -120 0 -18 -157 19 -225 53 -55 29 -106 68 -100 79 6 9
36 5 114 -12z m-1211 -183 c28 -9 52 -21 52 -26 0 -25 -190 -30 -269 -6 -121
36 -95 57 64 52 57 -2 123 -11 153 -20z m232 -141 c-16 -19 -30 -19 -30 -1 0
8 8 16 18 18 24 6 27 1 12 -17z m392 -114 c12 -63 6 -171 -12 -216 l-12 -30
-20 55 c-25 69 -30 216 -9 275 l14 40 14 -34 c8 -19 19 -59 25 -90z m1632 77
c25 -35 20 -71 -14 -101 -36 -32 -40 -77 -10 -107 30 -30 67 -23 117 23 36 32
35 15 -1 -39 -42 -62 -56 -74 -101 -84 -83 -19 -155 36 -155 116 0 136 112
267 164 192z m-269 -1468 c161 -41 304 -131 375 -235 118 -172 118 -476 0
-819 -101 -293 -205 -429 -397 -522 -195 -93 -513 -147 -733 -124 -387 40
-735 353 -855 770 -14 48 -19 97 -19 185 0 135 20 219 74 313 l30 52 33 -14
c17 -8 57 -25 87 -39 56 -25 189 -68 268 -88 l44 -10 -9 -52 c-4 -29 -8 -99
-8 -157 0 -191 54 -338 165 -451 96 -98 202 -139 361 -139 141 0 234 42 313
143 55 69 87 154 93 248 5 66 3 84 -16 122 -49 100 -150 160 -271 160 -121 0
-180 -34 -234 -137 -75 -142 31 -327 172 -301 40 7 89 46 103 83 9 24 -3 60
-25 74 -19 13 -60 9 -84 -8 -26 -18 -40 -12 -53 23 -13 34 5 87 38 113 51 40
162 22 220 -36 50 -50 3 -217 -84 -299 -89 -83 -309 -68 -419 29 -95 84 -145
214 -145 381 0 121 10 170 57 272 121 257 309 429 526 478 88 20 287 13 393
-15z m1076 -3316 c28 -14 34 -14 75 2 48 18 71 11 40 -12 -20 -14 -120 -20
-150 -8 -18 7 -22 34 -6 34 6 0 25 -7 41 -16z"/>
<path d="M10065 11014 c-38 -9 -105 -30 -147 -48 -82 -36 -208 -106 -208 -118
0 -14 230 -119 304 -138 202 -51 431 -4 544 113 l33 34 -51 47 c-117 110 -288
149 -475 110z m271 -139 l39 -17 -40 -15 c-59 -21 -173 -28 -249 -13 -36 7
-69 16 -71 21 -5 7 63 31 125 43 46 8 157 -2 196 -19z"/>
<path d="M2655 3657 c11 -7 39 -31 62 -54 45 -45 73 -116 93 -236 7 -40 11
-489 13 -1282 l2 -1220 137 -3 138 -3 2 708 3 708 723 3 722 2 0 -527 c0 -658
10 -752 84 -827 45 -44 95 -57 256 -62 l135 -5 -38 21 c-76 42 -126 148 -147
312 -6 53 -10 518 -10 1280 l0 1198 -140 0 -140 0 0 -665 0 -665 -722 2 -723
3 -6 550 c-4 465 -8 558 -21 603 -19 61 -57 116 -96 136 -39 20 -157 36 -259
35 -73 0 -85 -2 -68 -12z"/>
<path d="M5820 2419 c0 -860 3 -1272 11 -1321 20 -129 64 -194 147 -218 20 -6
98 -14 172 -17 l135 -6 -45 34 c-60 46 -105 136 -125 253 -13 76 -15 263 -15
1307 l0 1219 -140 0 -140 0 0 -1251z"/>
<path d="M7005 3642 c54 -40 70 -59 94 -115 52 -121 51 -109 54 -1432 l2
-1230 143 -3 144 -3 -2 28 c-1 15 -2 285 -1 600 l1 571 368 5 c399 5 421 7
601 72 241 87 404 257 461 480 50 197 29 454 -51 610 -94 183 -274 320 -501
384 -169 48 -252 53 -818 58 l-535 5 40 -30z m986 -33 c297 -75 507 -287 565
-569 26 -128 16 -327 -22 -439 -101 -303 -385 -501 -718 -501 -108 0 -262 18
-339 40 l-37 11 2 712 3 712 75 17 c184 43 342 49 471 17z"/>
<path d="M10161 3653 c-5 -10 -86 -200 -181 -423 -95 -223 -191 -450 -215
-505 -23 -55 -59 -140 -80 -190 -21 -49 -49 -113 -61 -142 -13 -28 -24 -55
-24 -58 0 -3 -11 -30 -24 -58 -12 -29 -40 -92 -61 -142 -21 -49 -50 -119 -65
-155 -16 -36 -92 -216 -170 -400 -78 -184 -175 -412 -215 -505 -96 -227 -93
-215 -56 -215 37 0 39 4 139 245 39 94 111 265 160 380 l89 210 664 0 664 0
66 -175 c116 -307 155 -376 282 -497 129 -123 285 -183 467 -182 47 0 78 3 70
6 -8 3 -39 14 -67 25 -74 27 -167 100 -212 167 -47 69 -105 184 -160 316 -23
55 -50 120 -61 145 -10 25 -62 149 -113 275 -402 978 -560 1363 -694 1688 -77
186 -88 207 -109 207 -13 0 -27 -8 -33 -17z m-61 -490 c33 -79 173 -418 282
-683 33 -80 76 -183 95 -230 59 -143 99 -240 147 -353 25 -59 46 -114 46 -122
0 -13 -85 -15 -625 -15 -344 0 -625 3 -625 6 0 5 259 611 320 749 10 22 68
157 130 300 62 143 128 297 148 343 19 45 39 82 43 82 4 0 22 -35 39 -77z"/>
<path d="M11701 3659 c-96 -19 -166 -71 -199 -149 -13 -32 -31 -230 -20 -230
3 0 20 30 38 66 61 119 178 202 340 241 63 15 121 18 367 18 l293 0 2 -1370 3
-1370 140 0 140 0 2 1370 3 1370 495 3 495 2 0 30 0 30 -1027 -1 c-566 -1
-1048 -5 -1072 -10z"/>
<path d="M14370 2410 c0 -1112 2 -1270 16 -1338 19 -91 33 -121 74 -155 45
-38 89 -48 245 -53 125 -4 137 -3 110 9 -54 25 -102 89 -132 179 l-28 83 -5
1265 -5 1265 -137 3 -138 3 0 -1261z"/>
<path d="M16552 3658 c-5 -7 -40 -85 -77 -173 -37 -88 -133 -313 -213 -500
-79 -187 -155 -365 -167 -395 -33 -82 -238 -565 -305 -720 -32 -74 -108 -252
-168 -395 -209 -496 -253 -599 -258 -607 -3 -4 12 -8 33 -8 l38 1 109 262 c60
144 139 333 175 420 l65 157 662 0 c621 0 662 -1 669 -17 3 -10 36 -94 71
-187 105 -273 152 -355 263 -464 131 -128 256 -180 446 -188 l120 -4 -50 18
c-213 80 -274 165 -485 682 -24 58 -60 147 -82 198 -21 51 -67 163 -102 250
-68 168 -228 557 -303 737 -25 61 -61 146 -78 190 -82 204 -289 703 -301 728
-15 28 -45 36 -62 15z m32 -728 c69 -168 173 -420 231 -560 134 -321 245 -596
245 -604 0 -3 -281 -6 -625 -6 -444 0 -625 3 -625 11 0 6 16 47 36 92 20 45
83 192 141 327 58 135 113 263 123 285 10 22 52 121 94 220 42 99 80 187 85
195 4 8 41 93 81 188 40 95 76 169 81 165 4 -4 63 -145 133 -313z"/>
</g>
</svg>
