<svg xmlns="http://www.w3.org/2000/svg" viewBox="0 0 512 512" id="network-cloud">
  <g>
    <path fill="#212e33" d="M258.83 412.8a7.5 7.5 0 0 1-7.5-7.5V361.69a7.5 7.5 0 0 1 15 0V405.3A7.5 7.5 0 0 1 258.83 412.8zM477.9 436.45H276.66c-4.14 0-4.14-15 0-15H477.9a7.5 7.5 0 0 1 0 15zM241 436.45H39.76a7.5 7.5 0 1 1 0-15H241C245.14 421.45 245.14 436.45 241 436.45z"></path>
    <rect width="15" height="15" x="277.78" y="421.45" fill="#101719"></rect>
    <rect width="15" height="15" x="251.33" y="392.3" fill="#101719"></rect>
    <rect width="15" height="15" x="226" y="421.45" fill="#101719"></rect>
    <path fill="#455a64" d="M284.16,458.1H233.5V399.8h50.66Zm-35.66-15h20.66V414.8H248.5Z"></path>
    <rect width="15" height="15" x="251.33" y="364.3" fill="#101719"></rect>
    <path fill="#90caf9" d="M511,283.1a90.9,90.9,0,0,1-90.79,90.79H115a111.5,111.5,0,1,1,16.45-221.79,156.59,156.59,0,0,1,71.88-79.95h0a158.47,158.47,0,0,1,148.91.32c2.6,1.39,5.13,2.85,7.63,4.38l.35.23a158.39,158.39,0,0,1,74,116.2,89.84,89.84,0,0,1,16.12,4.06,91.14,91.14,0,0,1,57.22,61.23l0,.05A90.38,90.38,0,0,1,511,283.1Z"></path>
    <path fill="#77b1d8" d="M153.12 166.73c-8.15-10.37-21.64-14.63-21.64-14.63a156.59 156.59 0 0 1 71.88-79.95C154.29 112.91 153.12 166.73 153.12 166.73zM450.42 197.34v0c-26.74-7-30.87 4-30.87 4-4.92-85.87-54.65-121.17-59.29-124.3a158.39 158.39 0 0 1 74 116.2A89.84 89.84 0 0 1 450.42 197.34zM511 283.1a90.9 90.9 0 0 1-90.79 90.79H115A111.5 111.5 0 0 1 11.43 221.28 110.31 110.31 0 0 0 119.66 352.7h317.6s76.38-6.3 70.39-94.13l0 .05A90.38 90.38 0 0 1 511 283.1z"></path>
    <line x1="301.33" x2="472.33" y1="426.95" y2="426.95" fill="none" stroke="#d6e5ea" stroke-linecap="round" stroke-linejoin="round" stroke-width="3"></line>
    <line x1="49.33" x2="220.33" y1="426.95" y2="426.95" fill="none" stroke="#d6e5ea" stroke-linecap="round" stroke-linejoin="round" stroke-width="3"></line>
  </g>
</svg>
