<svg xmlns="http://www.w3.org/2000/svg" viewBox="0 0 512 512" id="network-folder">
  <g>
    <path fill="#212e33" d="M227.57 434.62a7.5 7.5 0 0 1-7.5-7.5V383.52a7.5 7.5 0 0 1 15 0v43.61A7.5 7.5 0 0 1 227.57 434.62zM446.64 458.27H245.4c-4.14 0-4.14-15 0-15H446.64a7.5 7.5 0 0 1 0 15zM209.74 458.27H8.5a7.5 7.5 0 0 1 0-15H209.74C213.88 443.27 213.88 458.27 209.74 458.27z"></path>
    <rect width="15" height="15" x="246.51" y="443.27" fill="#162023"></rect>
    <rect width="15" height="15" x="220.07" y="414.12" fill="#162023"></rect>
    <rect width="15" height="15" x="194.74" y="443.27" fill="#162023"></rect>
    <path fill="#455a64" d="M252.9,479.93H202.24v-58.3H252.9Zm-35.66-15H237.9v-28.3H217.24Z"></path>
    <path fill="#ffa000" d="M454.14,109.62c0,.16,0,.33,0,.49s-.33,5.12-.92,13.77c-.3,4.37-.67,9.67-1.1,15.71,0,.12,0,.25,0,.38l-29,237.4a7.18,7.18,0,0,1-.3,1.39c-1.71,5.31-6.56,5.47-11.7,5.64-3.09.1-7.49.16-13.43.19l-6.76,0c-10.08,0-23.25-.08-40-.25-38.39-.37-89.41-1.12-138.74-1.84-78.37-1.15-167-2.45-177-1.68a7.5,7.5,0,0,1-7.53-2.22A29.44,29.44,0,0,1,20.1,358.9V61.58A29.55,29.55,0,0,1,49.62,32.07l125.81,1.28a7.5,7.5,0,0,1,5.5,2.49L223.22,83,421,79.2h.14C436.41,79.2,454.14,92.49,454.14,109.62Z"></path>
    <path fill="#ed8c00" d="M453.2,123.88c-.3,4.37-.67,9.67-1.1,15.71,0,.12,0,.25,0,.38l-29,237.4a7.18,7.18,0,0,1-.3,1.39c-1.71,5.31-6.56,5.47-11.7,5.64-3.09.1-7.49.16-13.43.19l-6.76,0c-10.08,0-23.25-.08-40-.25-38.39-.37-89.41-1.12-138.74-1.84-78.37-1.15-167-2.45-177-1.68a7.5,7.5,0,0,1-7.53-2.22A29.44,29.44,0,0,1,20.1,358.9v-.7L84.33,156.87a47.39,47.39,0,0,1,45.15-33Z"></path>
    <path fill="#ffca29" d="M509.76,161.89,443,366.73c-4.72,14.48-22.2,25.84-39.79,25.88L53,393.42h0c-13.95,0-24.55-7.13-27-18.18A22.9,22.9,0,0,1,26.61,363L93.43,158.15c4.72-14.48,22.19-25.86,39.77-25.88l350.22-.8c10.11,0,18.73,3.78,23.57,10.44C511.13,147.6,512.11,154.69,509.76,161.89Z"></path>
    <path fill="#ffc127" d="M509.76,161.89,443,366.73c-4.72,14.48-22.2,25.84-39.79,25.88L53,393.42C242.44,347.37,401.86,276.19,509.76,161.89Z"></path>
  </g>
</svg>
