<svg xmlns="http://www.w3.org/2000/svg" viewBox="0 0 512 512" id="server-setting">
  <g>
    <path fill="#455a64" d="M477.25,225.69v95.68c0,16.46-14.33,29.86-32,29.86H34.59c-17.62,0-32-13.39-32-29.86V225.69c0-16.46,14.33-29.86,32-29.86H445.3C462.92,195.84,477.25,209.23,477.25,225.69Z"></path>
    <rect width="24.71" height="81.84" x="63.08" y="230.05" fill="#556d77"></rect>
    <path fill="#556d77" d="M355.95,271c0,20.59-16.29,37.35-36.31,37.35S283.34,291.56,283.34,271s16.28-37.34,36.29-37.34S355.95,250.38,355.95,271Z"></path>
    <rect width="19.74" height="77.62" x="65.56" y="232.16" fill="#212e33"></rect>
    <path fill="#212e33" d="M353.14,271c0,19-15,34.45-33.5,34.45S286.15,290,286.15,271s15-34.44,33.48-34.44S353.14,252,353.14,271Z"></path>
    <path fill="#3b4d54" d="M472.8,210.5H7.08a32.47,32.47,0,0,1,27.51-14.66H445.3A32.47,32.47,0,0,1,472.8,210.5Z"></path>
    <rect width="24.71" height="81.84" x="101.22" y="230.05" fill="#556d77"></rect>
    <rect width="19.74" height="77.62" x="103.71" y="232.16" fill="#212e33"></rect>
    <rect width="24.71" height="81.84" x="139.77" y="230.05" fill="#556d77"></rect>
    <rect width="19.74" height="77.62" x="142.25" y="232.16" fill="#212e33"></rect>
    <rect width="7.73" height="77.62" x="65.56" y="232.16" fill="#2e3f44"></rect>
    <rect width="7.73" height="77.62" x="103.71" y="232.16" fill="#2e3f44"></rect>
    <rect width="7.73" height="77.62" x="142.25" y="232.16" fill="#2e3f44"></rect>
    <path fill="#556d77" d="M432.12,271c0,20.59-16.29,37.35-36.31,37.35S359.52,291.56,359.52,271s16.28-37.34,36.29-37.34S432.12,250.38,432.12,271Z"></path>
    <path fill="#212e33" d="M429.31,271c0,19-15,34.45-33.5,34.45S362.33,290,362.33,271s15-34.44,33.48-34.44S429.31,252,429.31,271Z"></path>
    <path fill="#455a64" d="M476.26,74.17v95.68c0,16.46-14.34,29.85-32,29.85H34.59c-17.62,0-32-13.39-32-29.85V74.17c0-16.46,14.34-29.85,32-29.85H444.3C461.92,44.32,476.26,57.71,476.26,74.17Z"></path>
    <rect width="24.71" height="81.84" x="63.08" y="78.52" fill="#556d77"></rect>
    <path fill="#556d77" d="M355.95,119.44c0,20.59-16.29,37.35-36.31,37.35S283.34,140,283.34,119.44s16.28-37.34,36.29-37.34S355.95,98.85,355.95,119.44Z"></path>
    <rect width="19.74" height="77.62" x="65.56" y="80.64" fill="#212e33"></rect>
    <path fill="#212e33" d="M353.14,119.44c0,19-15,34.45-33.5,34.45s-33.48-15.46-33.48-34.45S301.17,85,319.63,85,353.14,100.45,353.14,119.44Z"></path>
    <rect width="24.71" height="81.84" x="101.22" y="78.52" fill="#556d77"></rect>
    <rect width="19.74" height="77.62" x="103.71" y="80.64" fill="#212e33"></rect>
    <rect width="24.71" height="81.84" x="139.77" y="78.52" fill="#556d77"></rect>
    <rect width="19.74" height="77.62" x="142.25" y="80.64" fill="#212e33"></rect>
    <rect width="7.73" height="77.62" x="65.56" y="80.64" fill="#2e3f44"></rect>
    <rect width="7.73" height="77.62" x="103.71" y="80.64" fill="#2e3f44"></rect>
    <rect width="7.73" height="77.62" x="142.25" y="80.64" fill="#2e3f44"></rect>
    <path fill="#556d77" d="M432.12,119.44c0,20.59-16.29,37.35-36.31,37.35S359.52,140,359.52,119.44s16.28-37.34,36.29-37.34S432.12,98.85,432.12,119.44Z"></path>
    <path fill="#212e33" d="M429.31,119.44c0,19-15,34.45-33.5,34.45s-33.48-15.46-33.48-34.45S377.35,85,395.81,85,429.31,100.45,429.31,119.44Z"></path>
    <line x1="238.87" x2="403.35" y1="59.35" y2="59.35" fill="none" stroke="#aacad1" stroke-linecap="round" stroke-linejoin="round" stroke-width="6"></line>
    <line x1="416.27" x2="434.76" y1="59.35" y2="59.35" fill="none" stroke="#aacad1" stroke-linecap="round" stroke-linejoin="round" stroke-width="6"></line>
    <path fill="#314044" d="M44.59,185.2s-4.18.27-9.9,0Z"></path>
    <path fill="#354449" d="M476.26,169.85a28.29,28.29,0,0,1-4.55,15.35h.09a32.47,32.47,0,0,1-27.51,14.66H34.59A32.47,32.47,0,0,1,7.08,185.2h.09a28.29,28.29,0,0,1-4.55-15.35v-2.35c0,14,19.66,17.11,32.06,17.69,5.72.27,9.9,0,9.9,0H434.3s4.18.27,9.9,0c12.4-.58,32.05-3.72,32.05-17.69Z"></path>
    <path fill="#314044" d="M444.21,185.2c-5.73.27-9.9,0-9.9,0Z"></path>
    <path fill="#78909c" d="M507.72,366.52v-6.84l-3.91-43.35-24.13,2.17a89.68,89.68,0,0,0-10.22-17.39l14.11-17-38.74-32.2-15.42,18.57a88.09,88.09,0,0,0-19.61-5.12l-2-21.94L357.66,248l2.17,24.14a92.09,92.09,0,0,0-17.44,10.2l-17-14.11L302.3,296l-9.07,11,18.58,15.42a89.32,89.32,0,0,0-5.13,19.6l-21.93,2,4.54,50.13L313.45,392a91.92,91.92,0,0,0,10.18,17.43l-14.1,17,38.72,32.18L363.77,440a88,88,0,0,0,19.53,5.13l2,21.94,50.13-4.56-2.17-24.15a92.18,92.18,0,0,0,17.43-10.19l17,14.11,32.17-38.73L481.3,388a89.94,89.94,0,0,0,5.18-19.52ZM429.21,356a14.67,14.67,0,0,1-.2,2.37l-.06.47a32.64,32.64,0,0,1-64.89.07c-.09-1.23-.17-2.52-.17-3.61v-.73a32.66,32.66,0,0,1,65.32.73Z"></path>
    <path fill="#37474f" d="M396.24,282.41a72.82,72.82,0,1,0,72.81,72.82A72.82,72.82,0,0,0,396.24,282.41Zm0,105.45a32.63,32.63,0,1,1,32.63-32.63A32.63,32.63,0,0,1,396.24,387.86Z"></path>
    <path fill="#78909c" d="M396.24,316.14a39.09,39.09,0,1,0,39.08,39.09A39.09,39.09,0,0,0,396.24,316.14Zm0,71.72a32.63,32.63,0,1,1,32.63-32.63A32.63,32.63,0,0,1,396.24,387.86Z"></path>
  </g>
</svg>
