<svg xmlns="http://www.w3.org/2000/svg" viewBox="0 0 50 50" id="server">
  <path fill="#2e4277" d="m13.69 11.819-.072 30.959-1.044.607-.799-4.374.872-26.975z"></path>
  <path fill="#384e85" d="m10.259 41.445.072-30.958c-.001.3.97.672 2.316 1.55l-.073 31.348c-1.346-.878-2.316-1.639-2.315-1.94z"></path>
  <path fill="#1b2a4f" d="m21.105 16.1-.072 30.958-7.415-4.28.072-30.959z"></path>
  <path fill="#3955d1" d="m21.105 18.008-.008.95-7.415-4.28.008-.951zM21.105 20.468l-.008.951-7.415-4.281.008-.95zM21.105 22.929l-.008.95-7.415-4.281.008-.95zM21.105 25.389l-.008.95-7.415-4.28.008-.951zM21.105 27.849l-.008.951-7.415-4.281.008-.95z"></path>
  <path fill="#2e4277" d="m19.205 29.272-.005.597-4.265-2.462.006-.597zM19.205 30.677l-.005.598-4.265-2.462.006-.598zM19.205 33.489l-.005.597-4.265-2.462.006-.597zM19.205 32.083l-.005.597-4.265-2.462.006-.597zM19.205 36.3l-.005.597-4.265-2.462.006-.597zM19.205 34.894l-.005.598-4.265-2.462.006-.598zM19.205 37.706l-.005.597-4.265-2.462.006-.597zM39.741 8.619l-.072 30.958-16.154 9.388-.239-31.221z"></path>
  <path fill="#384e85" d="m23.588 17.617-.073 31.348c-.325.189-1.794-.414-3.52-1.304l.072-30.958c1.726.89 3.196 1.103 3.52.914z"></path>
  <path fill="#4466fb" d="m13.69 13.727-.008.951-1.044.607.008-.951zM13.69 16.188l-.008.95-1.044.607.008-.95zM13.69 18.648l-.008.95-1.044.607.008-.95zM13.69 21.108l-.008.951-1.044.607.008-.951zM13.69 23.569l-.008.95-1.044.607.008-.95z"></path>
  <path fill="#6bb5fb" d="m10.323 13.345.008-.95c-.001.3.969 1.062 2.315 1.94l-.008.95c-1.346-.878-2.316-1.64-2.315-1.94zm0 2.46.008-.95c-.001.301.969 1.062 2.315 1.94l-.008.95c-1.346-.878-2.316-1.639-2.315-1.94zm0 2.46.008-.95c-.001.301.969 1.062 2.315 1.94l-.008.95c-1.346-.877-2.316-1.638-2.315-1.94zm0 2.46.008-.95c-.001.302.969 1.063 2.315 1.94l-.008.95c-1.346-.877-2.316-1.638-2.315-1.94zm0 2.461.008-.95c-.001.301.969 1.062 2.315 1.94l-.008.95c-1.346-.878-2.316-1.639-2.315-1.94zm13.264-3.27-.008.914c-.325.189-1.794-.379-3.52-1.269l.008-.95c1.726.89 3.195 1.493 3.52 1.304zm0 2.46-.008.915c-.325.188-1.794-.38-3.52-1.27l.008-.95c1.726.89 3.195 1.493 3.52 1.304zm0 2.46-.008.915c-.325.189-1.794-.38-3.52-1.27l.008-.95c1.726.89 3.195 1.493 3.52 1.305zm0 2.46-.008.915c-.325.189-1.794-.379-3.52-1.269l.008-.95c1.726.89 3.195 1.493 3.52 1.304zm0 2.46-.008.916c-.325.188-1.794-.38-3.52-1.27l.008-.95c1.726.89 3.195 1.493 3.52 1.304z"></path>
  <path fill="#1b2a4f" d="m38.574 38.475-.422.242-.012-3.061.422-.242zM37.777 38.933l-.425.244-.013-3.061.426-.244zM36.977 39.392l-.422.242-.013-3.061.422-.242zM36.18 39.85l-.422.242-.013-3.061.422-.242zM35.383 40.308l-.425.244-.013-3.061.426-.244zM31.108 42.756l-.422.242-.013-3.062.422-.242zM30.311 43.213l-.426.244-.012-3.061.425-.244zM29.51 43.673l-.422.242-.012-3.061.422-.242zM28.714 44.131l-.422.242-.013-3.061.422-.242zM27.917 44.589l-.426.244-.013-3.061.426-.244zM38.574 32.819l-.422.242L38.14 30l.422-.242zM37.777 33.277l-.425.244-.013-3.061.426-.244zM36.977 33.737l-.422.241-.013-3.061.422-.242zM36.18 34.194l-.422.242-.013-3.061.422-.242zM35.383 34.652l-.425.244-.013-3.061.426-.244zM31.108 37.1l-.422.242-.013-3.062.422-.241zM30.311 37.557l-.426.244-.012-3.061.425-.244zM29.51 38.017l-.422.242-.012-3.061.422-.242zM28.714 38.475l-.422.242-.013-3.061.422-.242zM27.917 38.933l-.426.244-.013-3.061.426-.244z"></path>
  <path fill="#384e85" d="m39.741 8.62-16.154 9.387c-.325.189-1.794-.414-3.52-1.304l1.038-.603-7.415-4.28-1.044.606c-1.535-1-2.58-1.85-2.256-2.038L26.545 1 39.74 8.62z"></path>
</svg>
